<?xml version="1.0" encoding="UTF-8"?>
<svg xmlns="http://www.w3.org/2000/svg" xmlns:xlink="http://www.w3.org/1999/xlink" width="36px" height="36px" viewBox="0 0 36 36" version="1.1">
<g id="surface1">
<path style=" stroke:none;fill-rule:nonzero;fill:rgb(74.117647%,96.862745%,96.862745%);fill-opacity:1;" d="M 29.601562 12.71875 L 29.601562 8.355469 L 25.683594 4.4375 C 25.273438 4.023438 25.273438 3.359375 25.683594 2.945312 C 26.097656 2.535156 26.765625 2.535156 27.175781 2.945312 L 31.09375 6.863281 C 31.488281 7.257812 31.710938 7.792969 31.710938 8.355469 L 31.710938 10.609375 Z M 29.601562 12.71875 "/>
<path style=" stroke:none;fill-rule:nonzero;fill:rgb(31.372549%,29.411765%,51.372549%);fill-opacity:1;" d="M 31.710938 18.597656 L 29.601562 14.828125 L 29.601562 30.902344 C 29.601562 31.484375 29.128906 31.957031 28.546875 31.957031 C 27.964844 31.957031 27.492188 31.484375 27.492188 30.902344 L 27.492188 22.816406 C 27.492188 20.488281 25.601562 18.597656 23.273438 18.597656 L 21.164062 19.652344 L 23.273438 20.707031 C 24.4375 20.707031 25.382812 21.652344 25.382812 22.816406 L 25.382812 30.902344 C 25.382812 32.648438 26.800781 34.066406 28.546875 34.066406 C 30.292969 34.066406 31.710938 32.648438 31.710938 30.902344 Z M 31.710938 18.597656 "/>
<path style=" stroke:none;fill-rule:nonzero;fill:rgb(96.078431%,13.72549%,7.843137%);fill-opacity:1;" d="M 21.164062 0.527344 L 19.054688 0.527344 L 19.054688 8.964844 L 23.273438 4.746094 L 23.273438 2.636719 C 23.273438 1.472656 22.328125 0.527344 21.164062 0.527344 Z M 21.164062 0.527344 "/>
<path style=" stroke:none;fill-rule:nonzero;fill:rgb(100%,30.196078%,10.980392%);fill-opacity:1;" d="M 19.054688 0.527344 L 7.453125 0.527344 C 6.289062 0.527344 5.34375 1.472656 5.34375 2.636719 L 5.34375 4.746094 L 21.164062 10.019531 L 21.164062 2.636719 C 21.164062 1.472656 20.21875 0.527344 19.054688 0.527344 Z M 19.054688 0.527344 "/>
<path style=" stroke:none;fill-rule:nonzero;fill:rgb(96.078431%,13.72549%,7.843137%);fill-opacity:1;" d="M 23.273438 22.816406 L 23.273438 34.417969 L 14.835938 34.417969 L 21.164062 22.816406 Z M 23.273438 22.816406 "/>
<path style=" stroke:none;fill-rule:nonzero;fill:rgb(100%,30.196078%,10.980392%);fill-opacity:1;" d="M 5.34375 22.816406 L 21.164062 22.816406 L 21.164062 34.417969 L 5.34375 34.417969 Z M 5.34375 22.816406 "/>
<path style=" stroke:none;fill-rule:nonzero;fill:rgb(35.686275%,20%,39.215686%);fill-opacity:1;" d="M 23.273438 33.363281 L 21.164062 33.363281 L 21.164062 35.472656 L 23.273438 35.472656 C 23.855469 35.472656 24.328125 35 24.328125 34.417969 C 24.328125 33.835938 23.855469 33.363281 23.273438 33.363281 Z M 23.273438 33.363281 "/>
<path style=" stroke:none;fill-rule:nonzero;fill:rgb(31.372549%,29.411765%,51.372549%);fill-opacity:1;" d="M 22.21875 34.417969 C 22.21875 33.835938 21.746094 33.363281 21.164062 33.363281 L 5.34375 33.363281 C 4.761719 33.363281 4.289062 33.835938 4.289062 34.417969 C 4.289062 35 4.761719 35.472656 5.34375 35.472656 L 21.164062 35.472656 C 21.746094 35.472656 22.21875 35 22.21875 34.417969 Z M 22.21875 34.417969 "/>
<path style=" stroke:none;fill-rule:nonzero;fill:rgb(48.627451%,94.117647%,93.333333%);fill-opacity:1;" d="M 21.164062 4.746094 L 16.945312 13.78125 L 21.164062 22.816406 L 23.273438 22.816406 L 23.273438 4.746094 Z M 21.164062 4.746094 "/>
<path style=" stroke:none;fill-rule:nonzero;fill:rgb(74.117647%,96.862745%,96.862745%);fill-opacity:1;" d="M 5.34375 4.746094 L 5.34375 22.816406 L 21.164062 22.816406 L 21.164062 16.488281 L 14.835938 11.671875 L 21.164062 6.855469 L 21.164062 4.746094 Z M 5.34375 4.746094 "/>
<path style=" stroke:none;fill-rule:nonzero;fill:rgb(35.686275%,20%,39.215686%);fill-opacity:1;" d="M 15.890625 18.597656 L 14.34375 19.652344 L 15.890625 20.707031 L 19.054688 20.707031 L 19.054688 18.597656 Z M 15.890625 18.597656 "/>
<path style=" stroke:none;fill-rule:nonzero;fill:rgb(31.372549%,29.411765%,51.372549%);fill-opacity:1;" d="M 12.726562 18.597656 L 11.179688 19.652344 L 12.726562 20.707031 L 15.890625 20.707031 L 15.890625 18.597656 Z M 12.726562 18.597656 "/>
<path style=" stroke:none;fill-rule:nonzero;fill:rgb(27.45098%,38.823529%,63.529412%);fill-opacity:1;" d="M 9.5625 18.597656 L 12.726562 18.597656 L 12.726562 20.707031 L 9.5625 20.707031 Z M 9.5625 18.597656 "/>
<path style=" stroke:none;fill-rule:nonzero;fill:rgb(19.215686%,57.647059%,87.843137%);fill-opacity:1;" d="M 19.054688 6.855469 L 14.835938 11.671875 L 19.054688 16.488281 L 21.164062 16.488281 L 21.164062 6.855469 Z M 19.054688 6.855469 "/>
<path style=" stroke:none;fill-rule:nonzero;fill:rgb(14.901961%,67.058824%,100%);fill-opacity:1;" d="M 7.453125 6.855469 L 19.054688 6.855469 L 19.054688 16.488281 L 7.453125 16.488281 Z M 7.453125 6.855469 "/>
<path style=" stroke:none;fill-rule:nonzero;fill:rgb(96.078431%,13.72549%,7.843137%);fill-opacity:1;" d="M 29.601562 10.609375 L 28.546875 11.664062 L 28.546875 17.542969 L 29.601562 18.597656 L 31.710938 18.597656 L 31.710938 10.609375 Z M 29.601562 10.609375 "/>
<path style=" stroke:none;fill-rule:nonzero;fill:rgb(100%,30.196078%,10.980392%);fill-opacity:1;" d="M 28.546875 10.609375 C 27.964844 10.609375 27.492188 11.078125 27.492188 11.664062 L 27.492188 17.542969 C 27.492188 18.125 27.964844 18.597656 28.546875 18.597656 L 29.601562 18.597656 L 29.601562 10.609375 Z M 28.546875 10.609375 "/>
<path style=" stroke:none;fill-rule:nonzero;fill:rgb(0%,0%,0%);fill-opacity:1;" d="M 21.691406 16.488281 L 21.691406 6.855469 C 21.691406 6.5625 21.457031 6.328125 21.164062 6.328125 L 7.453125 6.328125 C 7.160156 6.328125 6.925781 6.5625 6.925781 6.855469 L 6.925781 16.488281 C 6.925781 16.78125 7.160156 17.015625 7.453125 17.015625 L 21.164062 17.015625 C 21.457031 17.015625 21.691406 16.78125 21.691406 16.488281 Z M 20.636719 15.960938 L 7.980469 15.960938 L 7.980469 7.382812 L 20.636719 7.382812 Z M 9.5625 18.070312 C 9.269531 18.070312 9.035156 18.304688 9.035156 18.597656 L 9.035156 20.707031 C 9.035156 21 9.269531 21.234375 9.5625 21.234375 L 19.054688 21.234375 C 19.347656 21.234375 19.582031 21 19.582031 20.707031 L 19.582031 18.597656 C 19.582031 18.304688 19.347656 18.070312 19.054688 18.070312 Z M 15.363281 19.125 L 15.363281 20.179688 L 13.253906 20.179688 L 13.253906 19.125 Z M 10.089844 19.125 L 12.199219 19.125 L 12.199219 20.179688 L 10.089844 20.179688 Z M 18.527344 20.179688 L 16.417969 20.179688 L 16.417969 19.125 L 18.527344 19.125 Z M 18.527344 20.179688 "/>
<path style=" stroke:none;fill-rule:nonzero;fill:rgb(0%,0%,0%);fill-opacity:1;" d="M 31.464844 6.488281 L 27.550781 2.574219 C 27.25 2.273438 26.855469 2.109375 26.429688 2.109375 C 26.007812 2.109375 25.609375 2.273438 25.3125 2.574219 C 24.695312 3.191406 24.695312 4.191406 25.3125 4.808594 L 29.074219 8.570312 L 29.074219 10.082031 L 28.546875 10.082031 C 27.675781 10.082031 26.964844 10.789062 26.964844 11.664062 L 26.964844 17.542969 C 26.964844 18.414062 27.675781 19.125 28.546875 19.125 L 29.074219 19.125 L 29.074219 30.902344 C 29.074219 31.191406 28.835938 31.429688 28.546875 31.429688 C 28.257812 31.429688 28.019531 31.191406 28.019531 30.902344 L 28.019531 22.816406 C 28.019531 20.199219 25.890625 18.070312 23.273438 18.070312 C 22.980469 18.070312 22.746094 18.304688 22.746094 18.597656 L 22.746094 22.289062 L 5.871094 22.289062 L 5.871094 5.273438 L 22.746094 5.273438 L 22.746094 16.488281 C 22.746094 16.78125 22.980469 17.015625 23.273438 17.015625 C 23.566406 17.015625 23.800781 16.78125 23.800781 16.488281 L 23.800781 2.636719 C 23.800781 1.183594 22.617188 0 21.164062 0 L 7.453125 0 C 6 0 4.816406 1.183594 4.816406 2.636719 L 4.816406 32.925781 C 4.203125 33.144531 3.761719 33.730469 3.761719 34.417969 C 3.761719 35.289062 4.472656 36 5.34375 36 L 23.273438 36 C 24.144531 36 24.855469 35.289062 24.855469 34.417969 C 24.855469 33.730469 24.414062 33.144531 23.800781 32.925781 L 23.800781 21.324219 C 24.414062 21.542969 24.855469 22.128906 24.855469 22.816406 L 24.855469 30.902344 C 24.855469 32.9375 26.511719 34.59375 28.546875 34.59375 C 30.582031 34.59375 32.238281 32.9375 32.238281 30.902344 L 32.238281 8.355469 C 32.238281 7.648438 31.964844 6.988281 31.464844 6.488281 Z M 29.972656 7.980469 L 26.058594 4.0625 C 25.851562 3.859375 25.851562 3.523438 26.058594 3.320312 C 26.15625 3.21875 26.289062 3.164062 26.429688 3.164062 C 26.570312 3.164062 26.703125 3.21875 26.804688 3.320312 L 30.71875 7.234375 C 31.019531 7.535156 31.183594 7.929688 31.183594 8.355469 L 31.183594 10.082031 L 30.128906 10.082031 L 30.128906 8.355469 C 30.128906 8.214844 30.074219 8.078125 29.972656 7.980469 Z M 28.019531 17.542969 L 28.019531 11.664062 C 28.019531 11.371094 28.257812 11.136719 28.546875 11.136719 L 31.183594 11.136719 L 31.183594 18.070312 L 28.546875 18.070312 C 28.257812 18.070312 28.019531 17.832031 28.019531 17.542969 Z M 22.746094 23.34375 L 22.746094 32.835938 L 5.871094 32.835938 L 5.871094 23.34375 Z M 7.453125 1.054688 L 21.164062 1.054688 C 22.035156 1.054688 22.746094 1.765625 22.746094 2.636719 L 22.746094 4.21875 L 5.871094 4.21875 L 5.871094 2.636719 C 5.871094 1.765625 6.582031 1.054688 7.453125 1.054688 Z M 23.273438 34.945312 L 5.34375 34.945312 C 5.054688 34.945312 4.816406 34.707031 4.816406 34.417969 C 4.816406 34.128906 5.054688 33.890625 5.34375 33.890625 L 23.273438 33.890625 C 23.5625 33.890625 23.800781 34.128906 23.800781 34.417969 C 23.800781 34.707031 23.5625 34.945312 23.273438 34.945312 Z M 28.546875 33.539062 C 27.09375 33.539062 25.910156 32.355469 25.910156 30.902344 L 25.910156 22.816406 C 25.910156 21.542969 25.003906 20.476562 23.800781 20.234375 L 23.800781 19.164062 C 25.585938 19.417969 26.964844 20.960938 26.964844 22.816406 L 26.964844 30.902344 C 26.964844 31.773438 27.675781 32.484375 28.546875 32.484375 C 29.417969 32.484375 30.128906 31.773438 30.128906 30.902344 L 30.128906 19.125 L 31.183594 19.125 L 31.183594 30.902344 C 31.183594 32.355469 30 33.539062 28.546875 33.539062 Z M 28.546875 33.539062 "/>
</g>
</svg>
